<svg width="76" height="75" viewBox="0 0 76 75" fill="none" xmlns="http://www.w3.org/2000/svg">
<g filter="url(#filter0_d_22_33)">
<circle cx="43.91" cy="39.44" r="27.5" fill="#191919"/>
<circle cx="36" cy="32" r="31" fill="#BBE85D" stroke="#191919" stroke-width="2"/>
<path d="M30.04 29.064C29.8907 28.7013 29.7307 28.36 29.56 28.04C29.4107 27.72 29.2507 27.4213 29.08 27.144C27.5867 27.3147 26.5093 28.0507 25.848 29.352C25.1867 30.6533 24.856 32.3493 24.856 34.44C24.856 36.744 25.176 38.4613 25.816 39.592C25.88 39.5707 25.976 39.56 26.104 39.56C26.744 39.496 27.288 39.2613 27.736 38.856C28.2053 38.4293 28.6 37.9067 28.92 37.288C29.2613 36.648 29.5387 35.976 29.752 35.272L37.528 39.208C36.76 41.512 35.736 43.336 34.456 44.68C33.176 46.024 31.3947 46.792 29.112 46.984C28.9413 47.0053 28.76 47.016 28.568 47.016C28.3973 47.016 28.2267 47.016 28.056 47.016C26.5627 47.016 25.0907 46.7493 23.64 46.216C22.2107 45.704 20.92 44.8933 19.768 43.784C18.6373 42.6747 17.7307 41.256 17.048 39.528C16.3653 37.7787 16.024 35.688 16.024 33.256C16.024 31.464 16.248 29.7787 16.696 28.2C17.144 26.6 17.7947 25.192 18.648 23.976C19.5227 22.76 20.568 21.7787 21.784 21.032C23.0213 20.264 24.4187 19.816 25.976 19.688C26.1467 19.6667 26.3173 19.656 26.488 19.656C26.6587 19.656 26.8293 19.656 27 19.656C28.7067 19.656 30.2533 20.0187 31.64 20.744C33.048 21.4693 34.2533 22.4293 35.256 23.624C36.28 24.8187 37.0587 26.1413 37.592 27.592L33.24 30.664L30.04 29.064ZM29.944 35.752C29.752 36.3707 29.4853 36.9893 29.144 37.608C28.8027 38.2267 28.3867 38.7493 27.896 39.176C27.4053 39.5813 26.8187 39.816 26.136 39.88C26.0507 39.9013 25.9547 39.912 25.848 39.912C25.7627 39.912 25.6667 39.912 25.56 39.912C24.1947 39.912 23.1493 39.3573 22.424 38.248C21.6987 37.1387 21.336 35.336 21.336 32.84C21.336 30.6 21.6987 28.808 22.424 27.464C23.1493 26.12 24.3227 25.3733 25.944 25.224H26.296C27.3413 25.224 28.152 25.5547 28.728 26.216C29.3253 26.8773 29.8053 27.6667 30.168 28.584L34.008 25.896C33.624 24.872 33.1227 23.912 32.504 23.016C31.9067 22.12 31.1387 21.3947 30.2 20.84C29.2827 20.264 28.152 19.976 26.808 19.976C26.68 19.976 26.552 19.976 26.424 19.976C26.296 19.976 26.1573 19.9867 26.008 20.008C24.4933 20.136 23.1387 20.5733 21.944 21.32C20.7493 22.0453 19.736 23.0053 18.904 24.2C18.072 25.3947 17.432 26.7707 16.984 28.328C16.5573 29.864 16.344 31.5067 16.344 33.256C16.344 35.688 16.696 37.7893 17.4 39.56C18.1253 41.3307 19.1387 42.696 20.44 43.656C21.7627 44.616 23.2987 45.096 25.048 45.096C25.176 45.096 25.304 45.096 25.432 45.096C25.5813 45.096 25.7307 45.0853 25.88 45.064C28.0987 44.8933 29.816 44.168 31.032 42.888C32.2693 41.5867 33.24 39.8907 33.944 37.8L29.944 35.752ZM54.544 46.739C53.9767 46.7637 53.4217 46.7883 52.879 46.813C52.361 46.8623 51.8553 46.887 51.362 46.887C47.8593 46.887 45.2693 46.2457 43.592 44.963C41.9147 43.6803 41.076 41.5713 41.076 38.636V31.569L38.708 30.385V24.798L41.076 24.613V18.582L47.07 18.027L50.77 19.877V24.132L53.841 25.649V31.236L50.77 31.495V38.932L52.028 38.821L55.728 40.671L54.544 46.739ZM51.547 39.265C51.0043 39.3143 50.5233 39.3637 50.104 39.413C49.7093 39.4377 49.3393 39.45 48.994 39.45C47.958 39.45 47.3167 39.265 47.07 38.895C46.8233 38.525 46.7 37.8837 46.7 36.971V29.312L49.771 29.053V24.206L46.7 24.465V18.434L41.446 18.915V24.946L39.078 25.131V29.978L41.446 29.793V38.636C41.446 40.116 41.631 41.3 42.001 42.188C42.371 43.076 43 43.7173 43.888 44.112C44.8007 44.5067 46.0587 44.704 47.662 44.704C48.0813 44.704 48.5253 44.6917 48.994 44.667C49.4627 44.6423 49.9683 44.6053 50.511 44.556L51.547 39.265Z" fill="#191919"/>
</g>
<defs>
<filter id="filter0_d_22_33" x="0" y="0" width="75.41" height="74.9399" filterUnits="userSpaceOnUse" color-interpolation-filters="sRGB">
<feFlood flood-opacity="0" result="BackgroundImageFix"/>
<feColorMatrix in="SourceAlpha" type="matrix" values="0 0 0 0 0 0 0 0 0 0 0 0 0 0 0 0 0 0 127 0" result="hardAlpha"/>
<feOffset dy="4"/>
<feGaussianBlur stdDeviation="2"/>
<feComposite in2="hardAlpha" operator="out"/>
<feColorMatrix type="matrix" values="0 0 0 0 0 0 0 0 0 0 0 0 0 0 0 0 0 0 0.25 0"/>
<feBlend mode="normal" in2="BackgroundImageFix" result="effect1_dropShadow_22_33"/>
<feBlend mode="normal" in="SourceGraphic" in2="effect1_dropShadow_22_33" result="shape"/>
</filter>
</defs>
</svg>
